<svg width="24" height="24" viewBox="0 0 24 24" fill="none" xmlns="http://www.w3.org/2000/svg">
<g clip-path="url(#clip0_1873_12751)">
<path d="M23.9361 12.8586C23.831 12.5099 23.6135 12.2058 23.3177 11.994C23.8306 11.5704 24.0442 10.8826 23.8615 10.2423C23.7307 9.80696 23.4258 9.44532 23.0194 9.24324C22.6136 9.04298 22.1441 9.01646 21.7185 9.16994L21.5116 9.24506C21.5662 8.9298 21.5292 8.60562 21.4047 8.31101C21.0347 7.49155 20.0913 7.10278 19.2527 7.42413L13.2929 9.60245L14.738 8.33632C15.5955 7.58166 15.6814 6.27382 14.9298 5.41326C14.5935 5.02388 14.0513 4.88478 13.5698 5.06458C13.4293 5.11723 13.2994 5.19438 13.186 5.29258L9.89461 8.11581L6.38657 9.43459C6.11779 9.53624 5.87287 9.69255 5.66714 9.89362L3.45752 11.6965C3.4466 11.7056 3.43609 11.7152 3.42599 11.7253L3.37809 11.7729C3.03919 12.0734 2.76254 12.4376 2.56388 12.8448H0.82775C0.370628 12.8448 0 13.2162 0 13.6742V19.8801C0 20.3381 0.370628 20.7095 0.82775 20.7095H2.59339C2.97251 21.4757 4.2307 22.3648 5.09483 22.3648H14.8019C15.701 22.3836 16.457 21.6928 16.5207 20.7939C16.5378 20.4752 16.4625 20.1585 16.3038 19.8817H17.2797C17.8839 19.8856 18.4463 19.5725 18.7622 19.0564L21.3738 18.1051C22.2236 17.8117 22.6975 16.905 22.4543 16.038C22.3612 15.7324 22.1815 15.4605 21.9374 15.255L22.8543 14.9209C23.7055 14.6317 24.1812 13.725 23.9361 12.8586ZM22.0013 9.9495C22.2131 9.87033 22.4483 9.8835 22.6502 9.98555C22.8535 10.0872 23.0056 10.2684 23.0707 10.4865C23.1815 10.9287 22.9323 11.3813 22.4998 11.5232L21.7935 11.7828L21.7877 11.785L18.1824 13.0995C18.1175 12.4779 17.7091 11.946 17.1261 11.7241L20.4371 10.5169H20.4509L22.0013 9.9495ZM13.5714 10.3804L19.535 8.20409C19.9596 8.03644 20.4418 8.22293 20.644 8.63296C20.7328 8.84091 20.7328 9.07619 20.644 9.28435C20.5553 9.4923 20.3856 9.65509 20.1744 9.73467C20.1714 9.73467 20.1689 9.73467 20.1665 9.73467L15.5092 11.4349C15.4249 11.4671 15.354 11.5269 15.3079 11.6046H10.1272L11.9159 10.9121C12.2602 10.7791 12.5626 10.5557 12.7911 10.2656C13.014 10.4361 13.3089 10.4796 13.5714 10.3804ZM13.7215 5.92413C13.7607 5.8891 13.8054 5.86095 13.8541 5.84131C14.0144 5.78117 14.1948 5.82774 14.3064 5.95774C14.7568 6.47387 14.7055 7.25789 14.1918 7.71064L13.2026 8.58031C13.1791 8.46064 13.145 8.3432 13.1003 8.22981C12.9514 7.84671 12.6224 7.56242 12.2221 7.4709H12.2156C12.1451 7.4549 12.0733 7.44498 12.0012 7.44154L11.9721 7.43607C11.9676 7.43607 11.9634 7.43607 11.9593 7.43607L13.7215 5.92413ZM0.82775 13.6742H2.47779V19.8801H0.82775V13.6742ZM17.2797 19.0528H11.5653C11.3367 19.0528 11.1514 19.2384 11.1514 19.4675C11.1514 19.6965 11.3367 19.8821 11.5653 19.8821H14.8698C15.0963 19.8817 15.313 19.9749 15.469 20.1397C15.6248 20.3045 15.706 20.5262 15.6937 20.753C15.646 21.2072 15.2576 21.5482 14.8019 21.5354H5.09483C4.39116 21.5354 3.35324 20.573 3.30555 20.2948V13.2595C3.30555 13.0149 3.74893 12.5733 3.96112 12.3605L3.99547 12.3265L6.2049 10.524C6.21581 10.515 6.22611 10.5057 6.23581 10.4956C6.36111 10.3707 6.51126 10.2737 6.67657 10.2111L10.1913 8.89011C10.206 8.88829 10.2204 8.88545 10.2347 8.88181L11.7868 8.29744C11.833 8.27942 11.8819 8.26929 11.9317 8.26707C12.0982 8.27112 12.2463 8.37499 12.3069 8.5305C12.5533 9.17055 12.236 9.88957 11.5976 10.1378L9.80892 10.8315C9.4391 10.9769 9.22428 11.3649 9.29724 11.7561C9.37039 12.1475 9.71051 12.4316 10.1076 12.4332H16.4582C16.9127 12.4212 17.2995 12.7624 17.3456 13.2156C17.3686 13.6132 17.1031 13.97 16.7161 14.0611C16.6797 14.0692 16.6429 14.0747 16.6059 14.0777C16.5785 14.082 16.5508 14.0846 16.5231 14.086H11.5653C11.3367 14.086 11.1514 14.2717 11.1514 14.5007C11.1514 14.7297 11.3367 14.9154 11.5653 14.9154H18.1857C18.4104 14.9178 18.6244 15.0122 18.7778 15.1766C18.9312 15.3412 19.0106 15.5615 18.9976 15.7863C18.9518 16.2342 18.5724 16.5732 18.1232 16.5679H17.3654C17.3626 16.5679 17.3599 16.5679 17.3575 16.5679H11.5653C11.3367 16.5679 11.1514 16.7536 11.1514 16.9826C11.1514 17.2116 11.3367 17.3973 11.5653 17.3973H17.3476C17.5741 17.3971 17.7908 17.4902 17.9466 17.655C18.1026 17.8198 18.1838 18.0416 18.1715 18.2681C18.1252 18.7233 17.7362 19.0655 17.2797 19.0528ZM21.0899 17.3268L19.013 18.0833C18.9904 17.7996 18.8938 17.5271 18.7333 17.2924C19.2929 17.095 19.7056 16.6141 19.8167 16.0301L20.5911 15.7464C20.8039 15.6697 21.0387 15.6832 21.241 15.7843C21.4435 15.8853 21.5957 16.0649 21.6626 16.2814C21.7713 16.726 21.5225 17.18 21.0899 17.3268ZM22.5728 14.1411L20.3096 14.9664L19.7431 15.1738C19.5109 14.5186 18.8903 14.0822 18.1964 14.0865H18.1857C18.1816 14.0865 18.1778 14.0865 18.1737 14.0865H17.972C17.9779 14.0765 17.9822 14.0654 17.9874 14.0549L22.0716 12.5662H22.0764C22.2892 12.4889 22.5245 12.503 22.7264 12.6051C22.9284 12.7071 23.0796 12.8879 23.1443 13.1052C23.2532 13.5472 23.0042 13.9986 22.5728 14.1411Z" fill="#828282"/>
<path d="M12.4139 3.70381C12.6424 3.70381 12.8278 3.51813 12.8278 3.28912V2.04506C12.8278 1.81605 12.6424 1.63037 12.4139 1.63037C12.1853 1.63037 12 1.81605 12 2.04506V3.28912C12 3.51813 12.1853 3.70381 12.4139 3.70381Z" fill="#828282"/>
<path d="M14.9023 4.06306C15.1003 4.17746 15.3534 4.10963 15.4677 3.91119L16.0886 2.83297C16.2009 2.63494 16.1326 2.38285 15.9356 2.26905C15.7385 2.15505 15.4867 2.22167 15.3716 2.41828L14.7507 3.49651C14.6366 3.69494 14.7045 3.94845 14.9023 4.06306Z" fill="#828282"/>
<path d="M9.37021 3.91119C9.44377 4.04058 9.58059 4.12056 9.72912 4.12097C9.87765 4.12137 10.0151 4.0418 10.089 3.91281C10.163 3.78383 10.1622 3.62488 10.0872 3.49651L9.46641 2.41828C9.35122 2.22167 9.09941 2.15505 8.90238 2.26905C8.70534 2.38285 8.63704 2.63494 8.7494 2.83297L9.37021 3.91119Z" fill="#828282"/>
<path d="M6.41559 4.89242L7.4917 5.51445C7.61983 5.58957 7.77826 5.59038 7.9072 5.51627C8.03593 5.44216 8.11514 5.30447 8.11494 5.15585C8.11454 5.00702 8.03471 4.86974 7.90558 4.79624L6.82946 4.17421C6.63162 4.06142 6.38022 4.12986 6.26645 4.32728C6.15267 4.52471 6.21936 4.777 6.41559 4.89242Z" fill="#828282"/>
<path d="M5.79669 7.85061H7.03831C7.26687 7.85061 7.45219 7.66494 7.45219 7.43593C7.45219 7.20692 7.26687 7.02124 7.03831 7.02124H5.79669C5.56813 7.02124 5.38281 7.20692 5.38281 7.43593C5.38281 7.66494 5.56813 7.85061 5.79669 7.85061Z" fill="#828282"/>
</g>
<defs>
<clipPath id="clip0_1873_12751">
<rect width="24" height="24" fill="white"/>
</clipPath>
</defs>
</svg>
