<svg width="24" height="24" viewBox="0 0 24 24" fill="none" xmlns="http://www.w3.org/2000/svg">
<path d="M8.28907 19.1951C8.38962 19.1783 8.49289 19.1927 8.58503 19.2363C9.64353 19.7369 10.8031 20 12.0009 20C16.4192 20 20.0009 16.4183 20.0009 12C20.0009 7.58172 16.4192 4 12.0009 4C7.58265 4 4.00093 7.58172 4.00093 12C4.00093 13.7069 4.53621 15.3319 5.51547 16.685C5.62103 16.8308 5.64002 17.0222 5.56518 17.1859L4.34674 19.8521L8.28907 19.1951ZM3.58312 20.9932C3.18791 21.0591 2.87963 20.6566 3.04616 20.2922L4.53685 17.0302C3.54236 15.5576 3.00093 13.819 3.00093 12C3.00093 7.02944 7.03036 3 12.0009 3C16.9715 3 21.0009 7.02944 21.0009 12C21.0009 16.9706 16.9715 21 12.0009 21C10.7085 21 9.45379 20.7271 8.30146 20.2068L3.58312 20.9932Z" fill="#828282"/>
</svg>
