<svg width="160" height="33" viewBox="0 0 160 33" fill="none" xmlns="http://www.w3.org/2000/svg">
<path fill-rule="evenodd" clip-rule="evenodd" d="M2.5619 0.379735C2.43749 0.900512 2.41197 1.62801 2.4994 2.16165C2.70724 3.42961 3.43731 4.573 4.47894 5.26182C5.03037 5.62646 5.41655 5.7941 6.61776 6.19038C8.66124 6.86452 10.0175 7.25476 12.3851 7.84995C13.9785 8.25048 14.2905 8.36543 14.8673 8.76415C15.2493 9.0282 15.6979 9.49467 15.9683 9.90877C16.0804 10.0805 16.1722 10.2354 16.1722 10.2529C16.1722 10.289 16.0232 10.3166 14.7242 10.5217C10.516 11.1858 6.42638 11.4823 1.99894 11.4443C0.126068 11.4281 0 11.4316 0 11.4985C0 11.625 0.118375 12.1374 0.210155 12.4083C0.353058 12.8302 0.694534 13.4497 0.982696 13.8099C1.75565 14.7759 2.8513 15.3697 4.12886 15.5149C4.4839 15.5553 4.71453 15.5513 5.49638 15.4915C7.75577 15.3185 10.4349 14.9767 12.6771 14.5755C14.2445 14.2951 14.744 14.2925 15.5931 14.5609C15.9713 14.6804 16.8467 15.1392 16.7895 15.188C16.7471 15.2242 15.4264 16.0274 14.8253 16.3826C11.7345 18.2091 8.40795 19.8654 5.10808 21.2211C4.72136 21.38 4.39179 21.5222 4.37566 21.5373C4.29604 21.6118 5.05899 22.3699 5.5286 22.683C6.71972 23.477 8.26786 23.6703 9.62144 23.1941C10.2867 22.9601 12.8606 21.6325 14.9153 20.4635C16.155 19.7582 16.5779 19.5889 17.2957 19.5106C17.7884 19.4568 18.3643 19.4927 18.3643 19.5772C18.3643 19.6317 17.6719 20.7519 17.0257 21.7429C16.2546 22.9252 15.1966 24.4319 14.2803 25.6524C13.9756 26.0584 13.7169 26.4149 13.7055 26.4446C13.6604 26.562 14.5594 26.6893 15.2208 26.6591C16.6128 26.5957 17.8719 25.9265 18.7038 24.8079C19.1205 24.2477 19.2875 23.8781 20.123 21.6675C20.3514 21.0631 20.5296 20.6493 20.5646 20.6423C20.6132 20.6324 20.6228 20.7382 20.6208 21.2627C20.6187 21.814 20.6309 21.9346 20.7153 22.2051C21.0599 23.3089 21.8522 24.0569 22.9688 24.3328L23.3483 24.4266L23.1699 24.4573C22.9053 24.503 22.4655 24.74 22.2371 24.96C21.7942 25.3866 21.5768 25.8895 21.5773 26.486C21.5778 27.0113 21.6887 27.3058 22.1456 27.9957C22.9566 29.2203 23.5158 30.8665 23.6036 32.2875C23.618 32.521 23.6341 32.7071 23.6395 32.7011C23.6448 32.6951 23.6705 32.4668 23.6966 32.1938C23.8413 30.6816 24.3553 29.218 25.2001 27.913C25.5608 27.3556 25.6839 27.0522 25.7153 26.6433C25.762 26.0346 25.555 25.471 25.1227 25.0298C24.8545 24.756 24.4204 24.5112 24.1105 24.4588C23.9445 24.4308 23.839 24.3187 23.8794 24.2133C23.8907 24.1839 23.8685 23.9388 23.83 23.6685L23.7602 23.1771L23.4508 23.1466C22.5867 23.0613 21.9339 22.6322 21.5742 21.9132C21.3066 21.3784 21.3106 21.4753 21.4281 18.2965C21.4836 16.795 21.4558 11.2371 21.386 9.90025C21.318 8.59796 21.2009 8.10146 20.8037 7.43303C20.4599 6.85426 19.7629 6.2434 19.1548 5.98804C19.0044 5.92488 18.5463 5.78686 18.1368 5.68131C12.9184 4.33658 8.11288 2.59003 3.13587 0.229223L2.65265 0L2.5619 0.379735Z" fill="#3B3B3B"/>
<path fill-rule="evenodd" clip-rule="evenodd" d="M44.7076 0.379735C44.832 0.900512 44.8576 1.62801 44.7701 2.16165C44.5623 3.42961 43.8322 4.573 42.7906 5.26182C42.2392 5.62646 41.853 5.7941 40.6518 6.19038C38.6083 6.86452 37.2521 7.25476 34.8844 7.84995C33.291 8.25048 32.979 8.36543 32.4022 8.76415C32.0202 9.0282 31.5716 9.49467 31.3012 9.90877C31.1891 10.0805 31.0974 10.2354 31.0974 10.2529C31.0974 10.289 31.2463 10.3166 32.5453 10.5217C36.7535 11.1858 40.8431 11.4823 45.2706 11.4443C47.1435 11.4281 47.2695 11.4316 47.2695 11.4985C47.2695 11.625 47.1512 12.1374 47.0594 12.4083C46.9165 12.8302 46.575 13.4497 46.2868 13.8099C45.5139 14.7759 44.4182 15.3697 43.1407 15.5149C42.7856 15.5553 42.555 15.5513 41.7732 15.4915C39.5138 15.3185 36.8346 14.9767 34.5924 14.5755C33.0251 14.2951 32.5256 14.2925 31.6764 14.5609C31.2983 14.6804 30.4228 15.1392 30.48 15.188C30.5225 15.2242 31.8431 16.0274 32.4442 16.3826C35.535 18.2091 38.8616 19.8654 42.1614 21.2211C42.5482 21.38 42.8777 21.5222 42.8939 21.5373C42.9735 21.6118 42.2105 22.3699 41.7409 22.683C40.5498 23.477 39.0017 23.6703 37.6481 23.1941C36.9828 22.9601 34.4089 21.6325 32.3543 20.4635C31.1145 19.7582 30.6916 19.5889 29.9739 19.5106C29.4812 19.4568 28.9052 19.4927 28.9052 19.5772C28.9052 19.6317 29.5976 20.7519 30.2439 21.7429C31.0149 22.9252 32.0729 24.4319 32.9892 25.6524C33.294 26.0584 33.5527 26.4149 33.5641 26.4446C33.6091 26.562 32.7102 26.6893 32.0487 26.6591C30.6567 26.5957 29.3976 25.9265 28.5657 24.8079C28.149 24.2477 27.9821 23.8781 27.1466 21.6675C26.9181 21.0631 26.7399 20.6493 26.705 20.6423C26.6563 20.6324 26.6467 20.7382 26.6487 21.2627C26.6508 21.814 26.6387 21.9346 26.5542 22.2051C26.2096 23.3089 25.4173 24.0569 24.3008 24.3328L23.9212 24.4266L24.0996 24.4573C24.3643 24.503 24.804 24.74 25.0325 24.96C25.4753 25.3866 25.6928 25.8895 25.6922 26.486C25.6917 27.0113 25.5809 27.3058 25.1239 27.9957C24.3129 29.2203 23.7537 30.8665 23.666 32.2875C23.6515 32.521 23.6354 32.7071 23.6301 32.7011C23.6247 32.6951 23.599 32.4668 23.5729 32.1938C23.4283 30.6816 22.9143 29.218 22.0695 27.913C21.7087 27.3556 21.5856 27.0522 21.5542 26.6433C21.5075 26.0346 21.7146 25.471 22.1468 25.0298C22.415 24.756 22.8491 24.5112 23.159 24.4588C23.325 24.4308 23.4305 24.3187 23.3901 24.2133C23.3788 24.1839 23.4011 23.9388 23.4395 23.6685L23.5094 23.1771L23.8187 23.1466C24.6828 23.0613 25.3356 22.6322 25.6953 21.9132C25.9629 21.3784 25.959 21.4753 25.8414 18.2965C25.7859 16.795 25.8138 11.2371 25.8835 9.90025C25.9515 8.59796 26.0687 8.10146 26.4658 7.43303C26.8097 6.85426 27.5067 6.2434 28.1147 5.98804C28.2651 5.92488 28.7233 5.78686 29.1327 5.68131C34.3511 4.33658 39.1567 2.59003 44.1337 0.229223L44.6169 0L44.7076 0.379735Z" fill="#3B3B3B"/>
<path d="M106.856 18.4716C106.856 19.7148 106.481 20.7829 105.73 21.676C104.937 22.612 103.93 23.0799 102.708 23.0799C102.251 23.0799 101.561 23.0692 100.64 23.0478C99.7253 23.0263 99.0394 23.0156 98.5821 23.0156C98.2463 23.0156 97.739 23.0299 97.0603 23.0585C96.3887 23.0871 95.885 23.1014 95.5492 23.1014C95.3706 23.1014 95.2812 23.0192 95.2812 22.8549C95.2812 22.069 95.317 20.8901 95.3884 19.3182C95.467 17.7393 95.5063 16.5568 95.5063 15.7709C95.5063 14.9421 95.467 13.6989 95.3884 12.0414C95.317 10.3766 95.2812 9.12989 95.2812 8.30111C95.2812 8.14392 95.3706 8.06533 95.5492 8.06533C96.1851 8.06533 97.1424 8.06891 98.4213 8.07605C99.7003 8.08319 100.661 8.08677 101.304 8.08677C102.805 8.08677 104.001 8.36541 104.894 8.9227C105.98 9.60144 106.523 10.6553 106.523 12.0842C106.523 12.5772 106.381 13.0916 106.095 13.6275C105.809 14.1562 105.462 14.5563 105.055 14.8278C104.848 14.9635 104.744 15.0529 104.744 15.0957C104.744 15.1386 104.848 15.2172 105.055 15.3315C105.598 15.6316 106.034 16.0745 106.363 16.6604C106.691 17.2391 106.856 17.8429 106.856 18.4716ZM103.844 12.32C103.844 11.3126 103.394 10.6339 102.494 10.2838C101.951 10.0766 101.061 9.97297 99.8253 9.97297C98.625 9.97297 98.0248 10.0623 98.0248 10.2409C98.0248 10.4767 98.0141 10.8303 97.9927 11.3019C97.9712 11.7734 97.9605 12.1307 97.9605 12.3736C97.9605 12.5379 97.9641 12.7916 97.9712 13.1345C97.9784 13.4774 97.9819 13.7347 97.9819 13.9061C97.9819 14.1133 98.7893 14.2169 100.404 14.2169C102.697 14.2169 103.844 13.5846 103.844 12.32ZM104.134 18.3644C104.134 17.4928 103.744 16.9033 102.965 16.5961C102.472 16.3961 101.704 16.296 100.661 16.296C98.8607 16.296 97.9605 16.3925 97.9605 16.5854V18.343C97.9605 18.6002 97.9677 18.9932 97.9819 19.5219C97.9962 20.0506 98.0034 20.4471 98.0034 20.7115C98.0034 20.7829 98.232 20.8365 98.6893 20.8722C99.1465 20.9079 99.8253 20.9258 100.726 20.9258C101.854 20.9258 102.665 20.7793 103.158 20.4864C103.808 20.1006 104.134 19.3933 104.134 18.3644Z" fill="#3B3B3B"/>
<path d="M123.917 15.578C123.917 17.7 122.788 19.7719 121.431 21.3009C120.016 22.887 117.648 23.4336 115.547 23.4336C113.44 23.4336 111.682 22.6441 110.274 21.0651C108.917 19.5433 108.238 17.7143 108.238 15.578C108.238 13.4632 108.924 11.6377 110.296 10.1016C111.71 8.5083 113.857 7.71167 115.944 7.71167C118.037 7.71167 120.016 8.39042 121.431 9.98369C122.796 11.5127 123.917 13.456 123.917 15.578ZM121.088 14.442C121.088 13.0416 120.432 12.2713 119.973 11.7842C118.602 10.3266 117.065 10.1016 115.687 10.1016C114.322 10.1016 113.025 10.7982 112.118 11.9128C111.26 12.9559 110.832 14.1776 110.832 15.578C110.832 16.9712 111.26 18.1894 112.118 19.2325C113.025 20.3471 114.161 20.9044 115.526 20.9044C118.43 20.4864 118.516 19.1146 119.116 17.8714C120.316 15.3851 121.259 14.442 121.088 14.442Z" fill="#3B3B3B"/>
<path d="M150.453 22.5977C150.453 22.9335 150.349 23.1014 150.142 23.1014H147.677C147.47 23.1014 146.93 22.3405 146.059 20.8186C145.323 19.5326 144.833 18.6038 144.59 18.0322C144.348 17.4821 144.208 17.1748 144.172 17.1105C143.958 16.7533 143.708 16.564 143.422 16.5425C143.337 16.5354 143.097 16.5318 142.704 16.5318C141.804 16.5318 141.354 16.6426 141.354 16.864C141.354 17.5213 141.375 18.5037 141.418 19.8112C141.468 21.1187 141.493 22.0975 141.493 22.7477C141.493 22.9835 141.404 23.1014 141.225 23.1014C141.09 23.1014 140.886 23.0906 140.614 23.0692C140.343 23.0478 140.139 23.0371 140.004 23.0371C139.875 23.0371 139.682 23.0478 139.425 23.0692C139.175 23.0906 138.985 23.1014 138.857 23.1014C138.678 23.1014 138.589 23.0192 138.589 22.8549C138.589 22.069 138.625 20.8901 138.696 19.3182C138.775 17.7393 138.814 16.5568 138.814 15.7709C138.814 14.9421 138.775 13.6989 138.696 12.0414C138.625 10.3766 138.589 9.12989 138.589 8.30111C138.589 8.14392 138.678 8.06533 138.857 8.06533C138.985 8.06533 139.182 8.07605 139.446 8.09748C139.711 8.11892 139.911 8.12964 140.046 8.12964C140.175 8.12964 140.368 8.11892 140.625 8.09748C140.882 8.07605 141.075 8.06533 141.204 8.06533C141.368 8.06533 141.45 8.12964 141.45 8.25824C141.45 8.86554 141.429 9.78006 141.386 11.0018C141.35 12.2236 141.332 13.1416 141.332 13.7561C141.332 14.0347 141.35 14.2098 141.386 14.2812C141.443 14.4098 141.59 14.4741 141.825 14.4741C143.212 14.4741 144.226 14.2169 144.869 13.7025C145.419 13.2452 145.941 12.4057 146.434 11.184C146.791 10.2266 147.148 9.26922 147.505 8.31183C147.555 8.19037 147.666 8.1082 147.838 8.06533C147.952 8.03675 148.331 8.02246 148.974 8.02246C149.76 8.02246 150.153 8.13321 150.153 8.35469C150.153 8.4833 149.988 9.06202 149.66 10.0909C149.274 11.2912 148.774 12.3486 148.159 13.2631C147.752 13.8847 147.213 14.5099 146.541 15.1386C146.369 15.2886 146.284 15.4244 146.284 15.5458C146.284 15.6744 146.573 16.3139 147.152 17.4642C147.652 18.4573 148.106 19.2539 148.513 19.8541C148.963 20.4042 149.592 21.2509 150.399 22.394C150.435 22.4583 150.453 22.5262 150.453 22.5977Z" fill="#3B3B3B"/>
<path d="M160.269 9.14776C160.127 9.38353 159.93 9.74077 159.68 10.2195C159.601 10.4409 159.462 10.7553 159.262 11.1626C159.219 11.2269 159.162 11.259 159.091 11.259C159.098 11.259 158.751 11.134 158.051 10.8839C157.358 10.6267 156.786 10.4981 156.336 10.4981C155.022 10.4981 154.364 11.0768 154.364 12.2343C154.364 12.8773 154.825 13.4382 155.747 13.9168C157.297 14.7242 158.155 15.1886 158.319 15.3101C159.241 16.046 159.701 17.0391 159.701 18.2894C159.701 19.8898 159.069 21.1509 157.805 22.0725C156.669 22.9013 155.272 23.3157 153.614 23.3157C152.843 23.3157 152.428 23.23 152.371 23.0585C152.342 22.787 152.278 22.3905 152.178 21.8689C152.121 21.6546 152.032 21.333 151.91 20.9044C151.889 20.8401 151.878 20.7793 151.878 20.7222C151.878 20.6222 151.932 20.5721 152.039 20.5721C152.21 20.5721 152.471 20.59 152.821 20.6257C153.178 20.6614 153.446 20.6793 153.625 20.6793C155.84 20.6793 156.947 19.9648 156.947 18.5359C156.947 17.8357 156.501 17.2284 155.608 16.714C153.979 15.7852 153.146 15.3029 153.11 15.2672C152.21 14.5384 151.76 13.5596 151.76 12.3307C151.76 11.0018 152.196 9.93725 153.068 9.13704C153.918 8.36541 155.018 7.9796 156.368 7.9796C156.94 7.9796 157.597 8.07248 158.34 8.25824C159.148 8.46544 159.755 8.7155 160.162 9.00843C160.198 9.03701 160.234 9.08345 160.269 9.14776Z" fill="#3B3B3B"/>
<path d="M121.087 15.5673C121.087 13.4453 122.215 11.3733 123.573 9.84437C124.988 8.25824 127.356 7.71167 129.457 7.71167C131.564 7.71167 133.322 8.50116 134.729 10.0801C136.087 11.602 136.766 13.431 136.766 15.5673C136.766 17.6821 136.08 19.5076 134.708 21.0437C133.293 22.637 131.146 23.4336 129.06 23.4336C126.967 23.4336 124.988 22.7548 123.573 21.1616C122.208 19.6326 121.087 17.6893 121.087 15.5673ZM123.916 16.7033C123.916 18.1036 124.572 18.874 125.03 19.3611C126.402 20.8186 127.938 21.0437 129.317 21.0437C130.682 21.0437 131.979 20.3471 132.886 19.2325C133.743 18.1894 134.172 16.9676 134.172 15.5673C134.172 14.1741 133.743 12.9559 132.886 11.9128C131.979 10.7982 130.843 10.2409 129.478 10.2409C126.574 10.6589 126.488 12.0306 125.888 13.2738C124.688 15.7602 123.744 16.7033 123.916 16.7033Z" fill="#3B3B3B"/>
<path d="M61.7445 8.36511C61.7445 8.40654 61.7403 8.48113 61.732 8.58887C61.5403 10.0889 61.4445 12.5504 61.4445 15.9732C61.4445 16.7025 61.4528 17.8006 61.4695 19.2675C61.4862 20.7344 61.4945 21.8325 61.4945 22.5618C61.4945 22.885 61.357 23.0466 61.082 23.0466C60.807 23.0466 60.4112 23.0549 59.8945 23.0715C59.3778 23.0881 58.9903 23.0964 58.732 23.0964C58.4737 23.0964 58.3445 22.9928 58.3445 22.7856C58.3445 22.6115 58.3987 21.0866 58.507 18.2108C58.557 16.8185 58.582 14.788 58.582 12.1194C58.582 11.9288 58.5403 11.8335 58.457 11.8335C58.257 11.8335 57.9404 11.8998 57.507 12.0324C57.082 12.165 56.7654 12.2313 56.557 12.2313C56.3654 12.2313 56.2695 12.1816 56.2695 12.0821C56.2695 11.9827 56.2779 11.8335 56.2945 11.6346C56.3195 11.4357 56.332 11.2865 56.332 11.187C56.332 11.0959 56.3237 10.9591 56.307 10.7768C56.2904 10.5945 56.282 10.4577 56.282 10.3666C56.282 10.2588 56.3737 10.1677 56.557 10.0931C57.0404 9.89417 57.5529 9.55438 58.0945 9.0737C58.1195 9.04884 58.3487 8.80021 58.782 8.32781C59.157 7.92172 59.3653 7.71867 59.407 7.71867C59.3987 7.71867 59.7445 7.79326 60.4445 7.94244C60.7028 7.97559 61.0778 8.03774 61.5695 8.12891C61.6862 8.16206 61.7445 8.24079 61.7445 8.36511Z" fill="#3B3B3B"/>
<path d="M77.7318 15.5878C77.7318 17.6763 77.111 19.4747 75.8694 20.983C74.5444 22.5991 72.8527 23.4072 70.7944 23.4072C68.7444 23.4072 67.0569 22.5991 65.732 20.983C64.482 19.4664 63.857 17.668 63.857 15.5878C63.857 13.5076 64.482 11.7175 65.732 10.2174C67.0569 8.61788 68.7444 7.81812 70.7944 7.81812C72.8527 7.81812 74.5444 8.61374 75.8694 10.205C77.111 11.705 77.7318 13.4993 77.7318 15.5878ZM74.7944 15.5878C74.7944 14.3115 74.4569 13.2092 73.7819 12.281C73.0319 11.2616 72.0361 10.7519 70.7944 10.7519C69.5528 10.7519 68.5611 11.2616 67.8194 12.281C67.1611 13.1927 66.8319 14.2949 66.8319 15.5878C66.8319 16.8641 67.1653 17.9705 67.8319 18.907C68.5819 19.9512 69.5694 20.4733 70.7944 20.4733C71.9777 20.4733 72.9611 19.9388 73.7444 18.8697C74.4444 17.9 74.7944 16.8061 74.7944 15.5878Z" fill="#3B3B3B"/>
<path d="M89.7067 18.9567C89.7067 20.3407 89.1734 21.4471 88.1068 22.2759C87.1151 23.0549 85.8651 23.4445 84.3568 23.4445C82.6901 23.4445 81.3652 23.0839 80.3818 22.3629C79.2402 21.5342 78.6693 20.291 78.6693 18.6335C78.6693 17.1251 79.3193 16.0104 80.6193 15.2894C80.1943 14.9579 79.8485 14.4855 79.5818 13.8722C79.3152 13.2507 79.1818 12.6249 79.1818 11.9951C79.1818 10.5945 79.7152 9.50051 80.7818 8.71319C81.7401 8.01703 82.9485 7.66895 84.4068 7.66895C85.7234 7.66895 86.8734 8.04603 87.8568 8.80021C88.9401 9.6124 89.4818 10.6525 89.4818 11.9205C89.4818 12.5669 89.3193 13.2175 88.9943 13.8722C88.6693 14.5518 88.2401 15.0698 87.7068 15.4262C89.0401 16.1803 89.7067 17.3572 89.7067 18.9567ZM86.9193 12.0697C86.9193 11.4978 86.6818 11.0047 86.2068 10.5903C85.7401 10.176 85.1651 9.96876 84.4818 9.96876C83.6901 9.96876 83.0651 10.1262 82.6068 10.4412C82.1485 10.7561 81.9193 11.1663 81.9193 11.6719C81.9193 12.3266 82.3985 12.9026 83.3568 13.3998C83.7901 13.6319 84.5985 13.9385 85.7818 14.3198C86.5401 13.6899 86.9193 12.9399 86.9193 12.0697ZM86.7193 19.1432C86.7193 18.389 86.2193 17.7674 85.2193 17.2785C84.411 16.9635 83.5985 16.6527 82.7818 16.3461C81.8651 16.9677 81.4068 17.784 81.4068 18.7951C81.4068 19.4913 81.6401 20.0548 82.1068 20.4858C82.6151 20.9582 83.3318 21.1944 84.2568 21.1944C85.8984 21.1944 86.7193 20.5106 86.7193 19.1432Z" fill="#3B3B3B"/>
</svg>
