<svg width="27" height="27" viewBox="0 0 27 27" fill="none" xmlns="http://www.w3.org/2000/svg">
<path d="M13.5 3.375C11.4975 3.375 9.5399 3.96882 7.87486 5.08137C6.20981 6.19392 4.91206 7.77523 4.14572 9.62533C3.37939 11.4754 3.17888 13.5112 3.56955 15.4753C3.96023 17.4393 4.92454 19.2434 6.34055 20.6595C7.75656 22.0755 9.56066 23.0398 11.5247 23.4305C13.4888 23.8211 15.5246 23.6206 17.3747 22.8543C19.2248 22.0879 20.8061 20.7902 21.9186 19.1251C23.0312 17.4601 23.625 15.5025 23.625 13.5C23.625 10.8147 22.5583 8.23935 20.6595 6.34054C18.7607 4.44174 16.1853 3.375 13.5 3.375ZM13.5 22.7812C11.6643 22.7812 9.86991 22.2369 8.34362 21.2171C6.81732 20.1972 5.62772 18.7477 4.92525 17.0518C4.22277 15.3559 4.03897 13.4897 4.39709 11.6893C4.75521 9.88893 5.63916 8.23517 6.93717 6.93717C8.23518 5.63916 9.88894 4.75521 11.6893 4.39709C13.4897 4.03897 15.3559 4.22277 17.0518 4.92524C18.7477 5.62772 20.1972 6.81732 21.2171 8.34361C22.2369 9.86991 22.7813 11.6643 22.7813 13.5C22.7813 15.9615 21.8034 18.3223 20.0628 20.0628C18.3223 21.8034 15.9615 22.7812 13.5 22.7812Z" fill="#828282"/>
<path d="M17.5078 13.1329L11.6016 9.75794C11.5374 9.72091 11.4647 9.70142 11.3906 9.70142C11.3166 9.70142 11.2438 9.72091 11.1797 9.75794C11.1153 9.79511 11.0619 9.84863 11.0249 9.91308C10.9878 9.97753 10.9685 10.0506 10.9688 10.125V16.875C10.9692 16.9486 10.9889 17.0208 11.0259 17.0845C11.0629 17.1481 11.1159 17.201 11.1797 17.2378C11.2427 17.2778 11.316 17.2983 11.3906 17.2968C11.4645 17.2974 11.5373 17.2784 11.6016 17.242L17.5078 13.867C17.5727 13.8302 17.6267 13.7768 17.6643 13.7124C17.7019 13.6479 17.7217 13.5746 17.7217 13.5C17.7217 13.4253 17.7019 13.352 17.6643 13.2876C17.6267 13.2231 17.5727 13.1697 17.5078 13.1329ZM11.8125 16.1493V10.8506L16.4531 13.5L11.8125 16.1493Z" fill="#828282"/>
<path d="M11.5 17L11 10.5H12L17 13.5L11.5 17Z" fill="#828282"/>
</svg>
