<svg width="27" height="27" viewBox="0 0 27 27" fill="none" xmlns="http://www.w3.org/2000/svg">
<path d="M22.7812 8.77505C22.7812 9.00005 22.6688 9.22505 22.5 9.3938L18.2812 13.3875C18.1687 13.5 17.8313 13.6688 17.4938 13.3875C17.2688 13.1625 17.2688 12.825 17.4938 12.6L20.8125 9.45005H16.875C14.9625 9.45005 13.3875 11.025 13.3875 12.9375V16.65C13.3875 16.9875 13.1625 17.2125 12.825 17.2125C12.4875 17.2125 12.2625 16.9875 12.2625 16.65V12.9375C12.2625 10.4063 14.3438 8.32505 16.875 8.32505H21.0375L17.55 5.0063C17.325 4.7813 17.325 4.4438 17.55 4.2188C17.775 3.9938 18.1125 3.9938 18.3375 4.2188L22.5562 8.21255C22.725 8.32505 22.7812 8.55005 22.7812 8.77505ZM20.8125 13.6125C20.475 13.6125 20.25 13.8375 20.25 14.175V20.475C20.25 21.2625 19.6313 21.8813 18.8438 21.8813H6.75C5.9625 21.8813 5.34375 21.2625 5.34375 20.475V8.32505C5.34375 7.53755 5.9625 6.9188 6.75 6.9188H12.9375C13.275 6.9188 13.5 6.6938 13.5 6.3563C13.5 6.0188 13.275 5.7938 12.9375 5.7938H6.75C5.34375 5.7938 4.21875 6.9188 4.21875 8.32505V20.4188C4.21875 21.825 5.34375 22.95 6.75 22.95H18.8438C20.25 22.95 21.375 21.825 21.375 20.4188V14.175C21.375 13.8375 21.0938 13.6125 20.8125 13.6125Z" fill="#828282"/>
</svg>
