<svg width="24" height="24" viewBox="0 0 24 24" fill="none" xmlns="http://www.w3.org/2000/svg">
<path fill-rule="evenodd" clip-rule="evenodd" d="M11.8734 6.5841C7.16446 8.55467 3.27245 10.1948 3.22446 10.2289C3.10817 10.3116 3.00014 10.5098 3 10.6409C2.99979 10.8021 3.08589 10.9916 3.19821 11.0771C3.25363 11.1193 4.22525 11.5274 5.35739 11.9838C6.48953 12.4403 7.433 12.8333 7.45401 12.8572C7.47498 12.881 7.84494 14.1368 8.27612 15.6478C8.7073 17.1588 9.08472 18.4529 9.1148 18.5236C9.14493 18.5943 9.21833 18.6843 9.27793 18.7238C9.40007 18.8045 9.65011 18.8189 9.76573 18.7518C9.80736 18.7277 10.3486 18.2588 10.9686 17.7099C12.3223 16.5112 12.277 16.5479 12.4603 16.5033C12.7499 16.4327 12.8063 16.4687 14.5083 17.8082C17.495 20.1587 17.2774 19.9977 17.4662 19.9977C17.6618 19.9977 17.8 19.9041 17.8935 19.7084C17.9868 19.5133 21.0265 3.58861 20.9998 3.43461C20.9593 3.20013 20.7325 2.99676 20.5153 3.00004C20.4712 3.00069 16.5823 4.6135 11.8734 6.5841ZM17.1028 6.55503C17.126 6.58021 17.1451 6.62875 17.1451 6.6629C17.1451 6.69705 15.8511 8.02864 14.2695 9.62196C10.4228 13.4974 10.2705 13.6542 10.168 13.8438C10.0324 14.0947 9.98037 14.3476 9.85954 15.3425C9.7962 15.8639 9.72685 16.2953 9.69845 16.3441C9.64687 16.433 9.50095 16.4592 9.40925 16.3962C9.38314 16.3783 9.15495 15.5844 8.90217 14.6321C8.41381 12.7924 8.38576 12.6313 8.50283 12.3385C8.53411 12.2603 8.6111 12.1437 8.67391 12.0794C8.81484 11.9353 16.9303 6.51042 17.0061 6.50974C17.0361 6.50947 17.0796 6.52985 17.1028 6.55503Z" fill="#3B3B3B"/>
</svg>
