<svg width="24" height="24" viewBox="0 0 24 24" fill="none" xmlns="http://www.w3.org/2000/svg">
<path fill-rule="evenodd" clip-rule="evenodd" d="M9.88743 6.16245C5.70174 7.90118 2.24218 9.34839 2.19952 9.37845C2.09615 9.45138 2.00013 9.62632 2 9.742C1.99981 9.88421 2.07635 10.0514 2.17619 10.1269C2.22545 10.1641 3.08911 10.5241 4.09546 10.9269C5.10181 11.3297 5.94045 11.6764 5.95912 11.6975C5.97776 11.7185 6.30661 12.8266 6.68989 14.1598C7.07316 15.4931 7.40864 16.6349 7.43538 16.6973C7.46216 16.7596 7.5274 16.8391 7.58038 16.8739C7.68895 16.9452 7.9112 16.9578 8.01398 16.8986C8.05098 16.8773 8.53212 16.4636 9.08317 15.9793C10 15 9.94783 14.8202 10 14.5C10 12.5 10 12 11 12C12.5 12 13.8321 12 14 12C14.1739 12 16 12 16 12C16 12 18.0235 3.51936 17.9998 3.38348C17.9638 3.17659 17.7623 2.99714 17.5692 3.00003C17.5299 3.00061 14.0731 4.42367 9.88743 6.16245ZM14.5358 6.13679C14.5565 6.15901 14.5734 6.20184 14.5734 6.23197C14.5734 6.2621 13.4232 7.43704 12.0174 8.8429C8.59802 12.2624 8.46266 12.4008 8.37158 12.5681C8.25103 12.7895 8.20477 13.0126 8.09737 13.8905C8.04107 14.3505 7.97942 14.7311 7.95418 14.7742C7.90833 14.8526 7.77862 14.8758 7.69711 14.8202C7.6739 14.8044 7.47107 14.1039 7.24637 13.2636C6.81227 11.6403 6.78735 11.4982 6.89141 11.2399C6.91921 11.1708 6.98765 11.0679 7.04348 11.0113C7.16874 10.8841 14.3825 6.09743 14.4498 6.09683C14.4765 6.09659 14.5152 6.11457 14.5358 6.13679Z" fill="#3B3B3B"/>
<path fill-rule="evenodd" clip-rule="evenodd" d="M11 14C11 13.4477 11.4477 13 12 13H21C21.5523 13 22 13.4477 22 14V20C22 20.5523 21.5523 21 21 21H12C11.4477 21 11 20.5523 11 20V14ZM12 15H21V16H12V15ZM18 17H12V18H18V17Z" fill="#3B3B3B"/>
</svg>
