<svg width="24" height="24" viewBox="0 0 24 24" fill="none" xmlns="http://www.w3.org/2000/svg">
<path fill-rule="evenodd" clip-rule="evenodd" d="M3.46067 7.00851C3.3752 7.01972 3.25248 7.05991 3.19613 7.09513C2.96577 7.23909 2.94249 7.50205 3.10443 8.13104C3.39524 9.26061 4.09843 10.7865 4.9959 12.2354C5.35638 12.8173 5.9864 13.7283 6.28992 14.1065C6.84788 14.8017 7.50126 15.4115 8.17489 15.8655C9.10673 16.4937 10.0524 16.856 11.0853 16.9805C11.3228 17.0091 12.0014 17.004 12.2221 16.972C12.6288 16.9129 12.83 16.7939 12.908 16.5661C12.9317 16.497 12.9342 16.3957 12.9351 15.4918C12.936 14.4732 12.9403 14.3846 12.9966 14.2135C13.028 14.1181 13.1119 14.0445 13.214 14.0228C13.3215 14 13.5074 14.0023 13.6167 14.0279C13.9137 14.0974 14.3305 14.3583 14.8294 14.7868C15.1117 15.0294 15.6671 15.5845 16.0976 16.0546C16.7412 16.7573 16.8908 16.8842 17.1795 16.9724C17.2637 16.9981 17.3454 17 18.384 17C19.58 17 19.58 17 19.7406 16.9222C19.8415 16.8733 19.9205 16.795 19.9633 16.7015C20.0151 16.5881 20.0117 16.3701 19.9554 16.208C19.7421 15.5934 18.9636 14.6249 17.4436 13.0835C17.1188 12.7541 17.0419 12.6619 16.9795 12.5275C16.9142 12.3869 16.9199 12.2735 17.0003 12.1129C17.0348 12.0441 17.1532 11.8595 17.2636 11.7026C18.1379 10.4601 18.9728 9.12798 19.3234 8.41617C19.6988 7.65398 19.7499 7.27389 19.4993 7.1067C19.3437 7.00282 19.3804 7.00554 18.1339 7.00554C17.088 7.00554 17.006 7.0074 16.9212 7.03314C16.7801 7.07594 16.6646 7.14383 16.5759 7.23616C16.4712 7.3451 16.4433 7.39454 16.283 7.75587C15.7608 8.93259 14.9933 10.2182 14.339 11.0123C14.03 11.3874 13.7069 11.6824 13.4799 11.7967C13.3852 11.8443 13.2447 11.8673 13.179 11.8458C13.1116 11.8238 13.0201 11.7226 12.9801 11.6258C12.9504 11.5541 12.9496 11.5086 12.9421 9.51166C12.9348 7.60084 12.9326 7.4638 12.9067 7.36178C12.8563 7.16314 12.7399 7.04547 12.5617 7.01288C12.5058 7.00264 11.9444 6.99876 10.917 7.00144L9.35723 7.00554L9.28144 7.04004C9.19107 7.08119 9.10164 7.16305 9.05684 7.24565C9.03129 7.29275 9.02428 7.33151 9.02431 7.42573C9.02434 7.57422 9.05066 7.62919 9.22913 7.85367C9.52458 8.22527 9.64001 8.47117 9.718 8.89514C9.75099 9.07453 9.75135 9.09332 9.75123 10.6522C9.75112 12.0823 9.74873 12.238 9.72532 12.3376C9.67829 12.5378 9.61115 12.6153 9.46812 12.6347C9.00697 12.6973 8.09082 11.5515 7.23508 9.8418C6.87066 9.11377 6.64894 8.59325 6.34017 7.74087C6.16219 7.24955 5.99319 7.06304 5.68136 7.01382C5.58838 6.99913 3.56881 6.9943 3.46067 7.00851Z" fill="#3B3B3B"/>
</svg>
